<?xml version="1.0" encoding="UTF-8"?>
<svg version="1.1" xmlns="http://www.w3.org/2000/svg" width="1920" height="544">
<path d="M0 0 C633.6 0 1267.2 0 1920 0 C1920 179.52 1920 359.04 1920 544 C1286.4 544 652.8 544 0 544 C0 364.48 0 184.96 0 0 Z " fill="#FDFEFE" transform="translate(0,0)"/>
<path d="M0 0 C3.00421074 1.33810581 4.99964914 2.78362258 7.234375 5.1875 C7.80800781 5.80367187 8.38164063 6.41984375 8.97265625 7.0546875 C9.55917969 7.69664063 10.14570312 8.33859375 10.75 9 C11.65298828 9.96292969 11.65298828 9.96292969 12.57421875 10.9453125 C17 15.7424178 17 15.7424178 17 18 C15.38281689 19.4328718 13.70376628 20.79624749 12 22.125 C7.77222332 25.50289072 3.86737211 28.95944392 0.14453125 32.8828125 C-2.4235705 35.41816979 -5.13708094 37.75257206 -7.86157227 40.11767578 C-11.27553262 43.12277161 -14.57146036 46.24963607 -17.875 49.375 C-23.00783614 54.21000637 -28.17473335 58.9936811 -33.4375 63.6875 C-36.69978911 66.631517 -39.91148767 69.62794844 -43.125 72.625 C-46.73051498 75.9858465 -50.33352408 79.33807896 -54.0625 82.5625 C-59.81712332 87.5863775 -65.38680216 92.81858661 -71 98 C48.13 98.33 167.26 98.66 290 99 C288.35 97.35 286.7 95.7 285 94 C284.35417969 93.34257812 283.70835937 92.68515625 283.04296875 92.0078125 C279.19718399 88.10535301 275.25345486 84.39865255 271.10546875 80.8203125 C263.69141644 74.41038972 256.5410172 67.71559879 249.390625 61.015625 C245.70492037 57.56915474 241.97851903 54.19268704 238.15234375 50.90234375 C235.04821853 48.15877028 232.02878826 45.32623606 229 42.5 C224.7763154 38.55936861 220.52782093 34.67073073 216.15234375 30.8984375 C211.01273252 26.3651325 206.02225943 21.66243292 201 17 C205.31660302 10.99926777 210.02033308 5.45993937 215 0 C218.81562395 1.29823475 221.07090879 2.74966858 223.8125 5.6875 C226.35584091 8.3301163 228.90471655 10.86056358 231.6875 13.25 C235.32527264 16.38034266 238.85641502 19.61235837 242.375 22.875 C246.2259865 26.44434143 250.08877553 29.99646017 254 33.5 C258.43851317 37.47736895 262.81748882 41.51587763 267.19018555 45.56518555 C270.37317459 48.50925209 273.57748661 51.42545444 276.8125 54.3125 C281.98787185 58.94753939 287.0384862 63.71194235 292.09667969 68.47387695 C296.64356855 72.74806049 301.24900638 76.94056724 305.91015625 81.08984375 C308.39338886 83.35956477 310.72828898 85.74268565 313.03363037 88.19172668 C314.97575548 90.09846047 314.97575548 90.09846047 317.49249268 91.50273132 C321.88977399 94.27205023 324.57619025 96.34126488 325.8939209 101.49868774 C326.31985778 105.85960249 326.17902026 110.20912437 326.046875 114.58203125 C326.03326939 116.20331446 326.02384113 117.82463756 326.01837158 119.44596863 C325.99163986 123.70274076 325.9032671 127.95614055 325.80322266 132.21173096 C325.7325948 135.66301962 325.70628433 139.11396406 325.68238449 142.56584644 C325.65259454 146.71727956 325.60237775 150.86837092 325.546875 155.01953125 C325.53705345 155.79749369 325.5272319 156.57545612 325.51711273 157.37699318 C325.16856251 180.93651436 325.16856251 180.93651436 318.9375 190.625 C318.53684326 191.26252197 318.13618652 191.90004395 317.72338867 192.55688477 C307.43640889 208.42747684 292.66491146 215.26905245 275 220 C274.34950526 220.18059778 273.69901052 220.36119556 273.02880383 220.54726601 C269.52588293 221.32895389 265.94431354 221.17428559 262.37036133 221.19287109 C261.49975571 221.20104858 260.62915009 221.20922607 259.73216248 221.21765137 C256.84879223 221.24246948 253.96547152 221.25902227 251.08203125 221.2734375 C250.09192236 221.27876118 249.10181347 221.28408485 248.08170128 221.28956985 C242.82962189 221.31630013 237.57756613 221.3356658 232.32543945 221.35009766 C228.00653597 221.3633714 223.6881123 221.3911021 219.36938477 221.43212891 C214.13215606 221.48187068 208.89535844 221.50627049 203.65790367 221.51332474 C201.6762795 221.51997499 199.69466256 221.53503092 197.71317482 221.55921555 C180.74304936 221.75433593 165.48845545 219.57517797 151 210 C150.16210938 209.44957031 149.32421875 208.89914063 148.4609375 208.33203125 C137.35563383 200.26951202 129.29219572 188.00438718 126.41145325 174.60731506 C125.6548252 169.81268111 125.75695293 165.02632416 125.8046875 160.18359375 C125.8075174 159.08652603 125.81034729 157.98945831 125.81326294 156.85914612 C125.82438003 153.38514902 125.84946888 149.91141803 125.875 146.4375 C125.88504075 144.0696652 125.89416468 141.70182633 125.90234375 139.33398438 C125.92258255 133.55580674 125.96174786 127.7781982 126 122 C114.78 122 103.56 122 92 122 C92.02320313 125.40957031 92.04640625 128.81914062 92.0703125 132.33203125 C92.08594743 135.6649539 92.09807028 138.99787234 92.10986328 142.33081055 C92.11986889 144.6322617 92.13347758 146.93370031 92.15087891 149.23510742 C92.17536779 152.55911369 92.18653784 155.88295066 92.1953125 159.20703125 C92.20563507 160.2220723 92.21595764 161.23711334 92.22659302 162.28291321 C92.22907257 178.37180512 87.75002616 190.3857883 76.625 202 C71.79510617 206.53717299 66.9006352 210.01291832 61 213 C59.75863281 213.67482422 59.75863281 213.67482422 58.4921875 214.36328125 C44.37231559 221.50751495 28.83374805 221.46587651 13.390625 221.43359375 C11.44683655 221.43816901 9.50304971 221.4434785 7.55926514 221.44947815 C3.51519126 221.45834235 -0.52868438 221.45606035 -4.57275391 221.44604492 C-9.72573994 221.43451881 -14.87804435 221.45485683 -20.03094101 221.48396206 C-24.03410089 221.50239474 -28.03709913 221.50201832 -32.04029083 221.49632454 C-33.93948579 221.49617243 -35.83869249 221.50212419 -37.73784637 221.51461601 C-48.22963001 221.57396766 -57.20538509 221.24389475 -67 217 C-68.43834423 216.4601314 -69.87811649 215.9240243 -71.3203125 215.39453125 C-79.95919591 211.89055612 -86.54246239 207.9020335 -93 201 C-93.87205078 200.12021484 -93.87205078 200.12021484 -94.76171875 199.22265625 C-106.24347081 186.93110808 -107.48926941 170.87594063 -107.57421875 154.88671875 C-107.58897586 153.26153963 -107.60385549 151.63636163 -107.61885071 150.01118469 C-107.64564514 146.62842874 -107.65934524 143.24588911 -107.66577148 139.86303711 C-107.67670222 135.54049129 -107.73867725 131.22024527 -107.8124876 126.89837933 C-107.86093471 123.55162303 -107.87330011 120.2054239 -107.87583351 116.85834694 C-107.88303403 115.26472335 -107.90339336 113.67109962 -107.93753624 112.07782555 C-108.18318875 99.68368693 -108.18318875 99.68368693 -105.24862671 95.50778198 C-103.2476337 93.74058882 -101.28698815 92.36485012 -99 91 C-88.40641883 81.57626215 -77.998976 71.94977375 -67.64233398 62.26733398 C-61.98594184 56.98076342 -56.30041807 51.72645533 -50.60595703 46.48095703 C-48.95298979 44.95664884 -47.30237398 43.4298304 -45.65234375 41.90234375 C-40.8150603 37.42604108 -35.97258916 32.95911578 -31.0625 28.5625 C-26.33486395 24.32845075 -21.69458601 20.00449731 -17.0534668 15.67626953 C-13.28130991 12.16653711 -9.45634337 8.73299364 -5.5546875 5.3671875 C-3.61536734 3.6617552 -1.78815272 1.86265908 0 0 Z " fill="#6F9C70" transform="translate(714,37)"/>
<path d="M0 0 C7.623554 -0.02318164 15.24710434 -0.0409448 22.87068558 -0.05181217 C26.41071061 -0.05702825 29.95071151 -0.06410276 33.49072266 -0.07543945 C37.56152578 -0.08839423 41.63230359 -0.09323876 45.703125 -0.09765625 C46.97303284 -0.10281754 48.24294067 -0.10797882 49.55133057 -0.11329651 C51.32271393 -0.11340981 51.32271393 -0.11340981 53.12988281 -0.11352539 C54.68875214 -0.11685631 54.68875214 -0.11685631 56.27911377 -0.12025452 C58.68889498 -0.01374985 60.70036807 0.30592919 63 1 C63 1.66 63 2.32 63 3 C64.0828125 3.12375 64.0828125 3.12375 65.1875 3.25 C69.27023554 4.33872948 71.63216001 6.07368378 74.09545898 9.54272461 C78.11350255 17.07285006 77.60366787 25.16720807 77.52148438 33.47485352 C77.50001778 36.06035855 77.52136178 38.64309458 77.546875 41.22851562 C77.54423194 42.89323522 77.5391074 44.5579531 77.53125 46.22265625 C77.53934692 46.98433609 77.54744385 47.74601593 77.55578613 48.53077698 C77.43432946 55.57366348 75.17663721 60.77389376 70.25 65.8125 C62.15629758 71.26018432 55.08489789 71.42412071 45.56640625 71.328125 C44.2927269 71.32625183 43.01904755 71.32437866 41.70677185 71.32244873 C39.02791661 71.31574951 36.34983768 71.30354971 33.67114258 71.28125 C30.23219044 71.25276879 26.79347578 71.24201546 23.35441685 71.2375679 C20.0708838 71.2324286 16.78740818 71.21789727 13.50390625 71.203125 C12.26548477 71.19887512 11.02706329 71.19462524 9.75111389 71.19024658 C8.61580734 71.18063904 7.48050079 71.17103149 6.31079102 71.16113281 C5.3067775 71.15430481 4.30276398 71.14747681 3.26832581 71.14044189 C1 71 1 71 0 70 C-0.09429342 67.82194281 -0.11742538 65.6407872 -0.11352539 63.46069336 C-0.11367142 62.77779739 -0.11381744 62.09490143 -0.1139679 61.39131165 C-0.11326876 59.12412386 -0.1054764 56.85701726 -0.09765625 54.58984375 C-0.09579207 53.02185613 -0.09436817 51.45386793 -0.09336853 49.88587952 C-0.08954334 45.75123497 -0.07971306 41.61662534 -0.06866455 37.48199463 C-0.05845044 33.26599602 -0.05387091 29.04999178 -0.04882812 24.83398438 C-0.03809079 16.55597353 -0.02101436 8.2779911 0 0 Z " fill="#030304" transform="translate(874,395)"/>
<path d="M0 0 C0.680625 -0.00257813 1.36125 -0.00515625 2.0625 -0.0078125 C4 0.125 4 0.125 7 1.125 C5.18690997 4.90227089 3.0926741 8.49769822 1 12.125 C1.969375 12.2075 2.93875 12.29 3.9375 12.375 C13.36202268 13.77262461 23.56777359 19.65341101 30.19921875 26.34375 C31.81483121 28.35941359 31.81483121 28.35941359 34 28.125 C35.7945781 26.22193355 37.40401346 24.19959912 39.05078125 22.16796875 C42.47678806 18.57718406 44.88601444 17.2393124 49.8828125 16.7265625 C51.29687452 16.71866271 52.71110589 16.72682141 54.125 16.75 C54.84042969 16.73839844 55.55585937 16.72679687 56.29296875 16.71484375 C61.5018377 16.74405236 61.5018377 16.74405236 63.9921875 18.6484375 C64.49105469 19.37933594 64.49105469 19.37933594 65 20.125 C64.51789063 20.65609375 64.03578125 21.1871875 63.5390625 21.734375 C62.59160156 22.79398438 62.59160156 22.79398438 61.625 23.875 C60.99851562 24.57109375 60.37203125 25.2671875 59.7265625 25.984375 C54.9620485 31.89151 55.43357925 37.77052112 56 45.125 C57.21278548 50.85260872 60.80751815 54.3051832 65 58.125 C64.67 59.115 64.34 60.105 64 61.125 C58.01224217 63.12091928 50.44952104 63.36383728 44.4765625 61.21875 C40.09201153 58.59809884 37.02976378 55.19624507 34 51.125 C30.61436672 51.71413002 28.87234858 52.86067522 26.375 55.1875 C23.20941176 58.125 23.20941176 58.125 21 58.125 C21.3609375 58.80046875 21.721875 59.4759375 22.09375 60.171875 C22.5578125 61.06390625 23.021875 61.9559375 23.5 62.875 C24.19609375 64.19757813 24.19609375 64.19757813 24.90625 65.546875 C26 68.125 26 68.125 26 72.125 C22.29397865 73.36034045 19.90246386 73.58028745 16 73.125 C14.3046875 71.75 14.3046875 71.75 12.625 70.0625 C10.54869827 68.06587576 9.59952117 67.17996459 6.69921875 66.9140625 C3.75417349 67.25146539 0.98577501 67.83920809 -1.859375 68.6640625 C-11.38272975 70.71471188 -20.3091185 69.14420646 -29 65.125 C-29.89976562 64.72796875 -30.79953125 64.3309375 -31.7265625 63.921875 C-38.82651949 60.61275051 -43.30306151 56.38758465 -48 50.125 C-48.5775 49.3825 -49.155 48.64 -49.75 47.875 C-51.83228316 43.29397704 -51.8752064 38.80006589 -50.30859375 34.01171875 C-45.77480452 24.24225661 -37.98269826 17.49394168 -28.125 13.3125 C-23.23632887 11.63016378 -18.12948672 11.3984469 -13 11.125 C-12.88398437 10.35671875 -12.76796875 9.5884375 -12.6484375 8.796875 C-11.75202704 5.1032319 -9.84302927 3.56188223 -7 1.125 C-4.32356043 0.23285348 -2.74615622 -0.01040211 0 0 Z " fill="#DEDEDD" transform="translate(939,155.875)"/>
<path d="M0 0 C3.46571217 2.06467959 5.89027271 4.55781336 8 8 C8 8.99 8 9.98 8 11 C8.56847656 11.04898438 9.13695312 11.09796875 9.72265625 11.1484375 C22.40223096 12.37617595 32.7539765 17.06977541 41 27 C44.70481606 31.63926521 45.58460544 35.65715579 45.32421875 41.57421875 C44.43312175 48.24134206 41.11381851 53.4031475 35.9765625 57.6875 C30.21539267 62.01303852 24.36963152 64.66554409 17.58984375 67.0546875 C15.10349875 67.75590518 15.10349875 67.75590518 14 69 C11.50508729 69.15611969 9.05922499 69.23846713 6.5625 69.25 C5.83836914 69.25394775 5.11423828 69.25789551 4.36816406 69.26196289 C-0.78344613 69.20631632 -5.1564086 68.45770641 -9.984375 66.55859375 C-12.41075596 65.88616647 -13.6647293 66.10595285 -16 67 C-17.37310707 68.29233607 -18.71034824 69.62437146 -20 71 C-22.52475462 72.26237731 -24.31200466 72.09856404 -27.125 72.0625 C-28.49011719 72.04896484 -28.49011719 72.04896484 -29.8828125 72.03515625 C-30.93082031 72.01775391 -30.93082031 72.01775391 -32 72 C-32 67.83588785 -31.38740919 66.33607747 -29.5 62.75 C-29.0359375 61.85796875 -28.571875 60.9659375 -28.09375 60.046875 C-27.7328125 59.37140625 -27.371875 58.6959375 -27 58 C-27.77085937 57.72285156 -28.54171875 57.44570312 -29.3359375 57.16015625 C-32.65282173 55.71570667 -34.4935677 53.57239104 -37 51 C-37.99 50.67 -38.98 50.34 -40 50 C-40.2475 51.0828125 -40.2475 51.0828125 -40.5 52.1875 C-42.64241518 56.20452846 -45.9186479 58.10075695 -50 60 C-50.99 60 -51.98 60 -53 60 C-53 60.66 -53 61.32 -53 62 C-55.08304538 62.05418326 -57.16649768 62.09287551 -59.25 62.125 C-60.41015625 62.14820313 -61.5703125 62.17140625 -62.765625 62.1953125 C-65.82786046 62.0103949 -67.44202751 61.60823023 -70 60 C-68.54230386 56.74595105 -66.6424086 54.35895358 -64.375 51.625 C-59.94803231 45.36426746 -59.7270652 39.43429284 -61 32 C-62.93494059 27.03415638 -65.67508293 24.04346016 -70 21 C-70 20.01 -70 19.02 -70 18 C-65.14520174 15.1887331 -60.4684507 15.30375164 -55 16 C-47.90558771 18.30311356 -42.8426291 22.43578709 -38 28 C-37.48953125 27.49210937 -36.9790625 26.98421875 -36.453125 26.4609375 C-27.93162588 18.39270961 -18.69345995 13.50048822 -7 12 C-8.72743854 8.38060496 -10.47650757 5.12432397 -13 2 C-8.75733064 -0.82844624 -4.98228705 -0.65367606 0 0 Z " fill="#DDDEDC" transform="translate(713,156)"/>
<path d="M0 0 C0.92176529 -0.00524185 1.84353058 -0.0104837 2.79322815 -0.0158844 C4.73201496 -0.0222739 6.67084069 -0.02100769 8.60961914 -0.01245117 C11.55490994 -0.00393947 14.49825949 -0.03274839 17.44335938 -0.06445312 C19.33723901 -0.06606553 21.23112204 -0.06548685 23.125 -0.0625 C23.99402451 -0.07373398 24.86304901 -0.08496796 25.75840759 -0.09654236 C34.62857346 0.00318378 41.86112498 3.16581248 48.12890625 9.43359375 C51.00739171 14.01300243 50.2683667 19.20382681 50.12890625 24.43359375 C44.18890625 24.43359375 38.24890625 24.43359375 32.12890625 24.43359375 C31.79890625 22.78359375 31.46890625 21.13359375 31.12890625 19.43359375 C27.5278135 17.03286525 24.88451536 17.12736992 20.72265625 17.1328125 C19.64099182 17.12638481 19.64099182 17.12638481 18.53747559 17.11982727 C17.01441497 17.11408994 15.49132696 17.11357933 13.96826172 17.11791992 C11.63722097 17.12108247 9.30744657 17.09760667 6.9765625 17.07226562 C5.49609535 17.06999282 4.01562479 17.06928905 2.53515625 17.0703125 C1.83821655 17.06110275 1.14127686 17.05189301 0.42321777 17.04240417 C-2.3111205 17.06857546 -4.40503986 17.16750396 -6.80688477 18.53881836 C-8.41488769 21.40179398 -8.2783572 23.8470181 -8.3046875 27.11328125 C-8.31255028 28.08794846 -8.31255028 28.08794846 -8.3205719 29.08230591 C-8.32698806 30.455735 -8.32566023 31.82921907 -8.31713867 33.20263672 C-8.3086491 35.29495271 -8.33735337 37.38451774 -8.36914062 39.4765625 C-8.37075345 40.81380127 -8.37017356 42.15104484 -8.3671875 43.48828125 C-8.36904053 44.69983887 -8.37089355 45.91139648 -8.37280273 47.15966797 C-7.7612784 51.15019902 -6.91149422 52.77875242 -3.87109375 55.43359375 C-0.56243588 56.17006027 -0.56243588 56.17006027 3.16015625 56.02734375 C4.16955261 56.02740417 4.16955261 56.02740417 5.19934082 56.02746582 C6.618178 56.02211855 8.0370152 56.00456882 9.45556641 55.97558594 C11.62234381 55.93372055 13.78601121 55.93451871 15.953125 55.94140625 C22.92073277 56.13454733 22.92073277 56.13454733 29.50585938 54.27929688 C31.73103025 52.07634926 31.73103025 52.07634926 32.12890625 46.43359375 C24.86890625 46.43359375 17.60890625 46.43359375 10.12890625 46.43359375 C10.12890625 41.81359375 10.12890625 37.19359375 10.12890625 32.43359375 C23.32890625 32.43359375 36.52890625 32.43359375 50.12890625 32.43359375 C50.19078125 35.87796875 50.25265625 39.32234375 50.31640625 42.87109375 C50.35737427 44.47102173 50.35737427 44.47102173 50.39916992 46.10327148 C50.45966464 53.13431926 49.89580408 59.79575956 45.515625 65.5546875 C44.67451172 66.20630859 44.67451172 66.20630859 43.81640625 66.87109375 C43.26339844 67.32355469 42.71039062 67.77601563 42.140625 68.2421875 C36.3090356 71.69584724 30.59139209 71.7537113 24.015625 71.76953125 C23.04663773 71.77618805 22.07765045 71.78284485 21.07929993 71.78970337 C19.03441253 71.79980127 16.98949238 71.80452128 14.94458008 71.80419922 C11.83684193 71.80856504 8.73053346 71.8448953 5.62304688 71.8828125 C3.62891106 71.88868294 1.63476856 71.89265081 -0.359375 71.89453125 C-1.27842117 71.90890228 -2.19746735 71.92327332 -3.1443634 71.93807983 C-9.43828442 71.89411496 -14.42545557 70.66970918 -19.87109375 67.43359375 C-22.02734375 65.21484375 -22.02734375 65.21484375 -23.37109375 62.93359375 C-23.83515625 62.18078125 -24.29921875 61.42796875 -24.77734375 60.65234375 C-27.04873816 56.04465794 -27.04494823 51.58478795 -27.07421875 46.51953125 C-27.07991882 45.74985016 -27.0856189 44.98016907 -27.0914917 44.18716431 C-27.10092434 42.55822108 -27.10746878 40.92925893 -27.11132812 39.30029297 C-27.12097903 36.83786529 -27.15199505 34.37629256 -27.18359375 31.9140625 C-27.31809966 12.20125137 -27.31809966 12.20125137 -21.18359375 5.49609375 C-14.10875805 1.09100737 -8.16922361 -0.0275322 0 0 Z " fill="#080809" transform="translate(632.87109375,394.56640625)"/>
<path d="M0 0 C1.25215302 -0.01925285 1.25215302 -0.01925285 2.52960205 -0.03889465 C3.42443298 -0.04628159 4.31926392 -0.05366852 5.24121094 -0.0612793 C6.17100769 -0.06935104 7.10080444 -0.07742279 8.05877686 -0.08573914 C10.02565662 -0.09955572 11.99256013 -0.1102887 13.95947266 -0.11816406 C15.96312525 -0.12967931 17.96674727 -0.15012386 19.97021484 -0.1796875 C22.87325784 -0.22251301 25.77539064 -0.23855413 28.67871094 -0.2487793 C30.00881195 -0.27504143 30.00881195 -0.27504143 31.36578369 -0.30183411 C37.91643979 -0.27921799 43.42064585 1.03945251 48.28765869 5.65995789 C53.26163805 11.37208814 52.72558594 14.11553476 52.72558594 22.17700195 C46.78558594 22.17700195 40.84558594 22.17700195 34.72558594 22.17700195 C34.39558594 20.52700195 34.06558594 18.87700195 33.72558594 17.17700195 C30.81506394 15.72174095 28.25002183 16.04714308 25.00292969 16.04418945 C24.01191002 16.04275436 24.01191002 16.04275436 23.00086975 16.04129028 C21.60466415 16.0406098 20.20845538 16.04245495 18.81225586 16.04663086 C16.6680598 16.05198952 14.52407241 16.04667716 12.37988281 16.0402832 C11.02506464 16.04094384 9.6702466 16.04222471 8.31542969 16.04418945 C7.07656006 16.04531738 5.83769043 16.04644531 4.5612793 16.04760742 C1.82466608 15.85320862 1.82466608 15.85320862 0.72558594 17.17700195 C0.56504779 19.05022143 0.56504779 19.05022143 0.60058594 21.17700195 C0.59800781 21.89887695 0.59542969 22.62075195 0.59277344 23.36450195 C0.52863318 25.1978961 0.52863318 25.1978961 1.72558594 26.17700195 C4.65707857 26.43139162 7.57376119 26.62789979 10.51074219 26.7902832 C12.33956605 26.90475613 14.16834077 27.02001636 15.99707031 27.13598633 C18.88433236 27.3148043 21.77153421 27.48858593 24.65991211 27.6484375 C27.44473716 27.80492066 30.22747146 27.98345725 33.01074219 28.1652832 C33.8631398 28.20712234 34.71553741 28.24896149 35.59376526 28.29206848 C42.63513 28.77928553 48.28658376 30.57179202 53.19042969 35.80981445 C55.25274122 40.33325604 55.35017282 44.1361819 55.28808594 49.05200195 C55.32385742 50.34170898 55.32385742 50.34170898 55.36035156 51.6574707 C55.34594765 57.98559166 54.09903107 62.50069756 49.72558594 67.17700195 C43.64238849 71.0318128 37.77605694 71.75459748 30.72167969 71.63793945 C29.79895767 71.63702301 28.87623566 71.63610657 27.92555237 71.63516235 C25.98848274 71.62915975 24.05142093 71.61351544 22.11450195 71.58862305 C19.16745396 71.55205615 16.2216657 71.54760486 13.27441406 71.5480957 C11.38182519 71.53826428 9.48924474 71.52660717 7.59667969 71.51293945 C6.72563095 71.51071381 5.85458221 71.50848816 4.95713806 71.50619507 C-3.46337822 71.37693824 -10.20084698 70.39517778 -16.27441406 64.17700195 C-19.15289952 59.59759327 -18.41387451 54.40676889 -18.27441406 49.17700195 C-12.66441406 49.17700195 -7.05441406 49.17700195 -1.27441406 49.17700195 C-0.61441406 51.15700195 0.04558594 53.13700195 0.72558594 55.17700195 C5.38865608 55.22637474 10.05157467 55.26270823 14.71484375 55.28686523 C16.30178477 55.29693383 17.88870719 55.31058962 19.47558594 55.32788086 C21.75427841 55.35209197 24.03272599 55.36347618 26.31152344 55.37231445 C27.37879166 55.38779831 27.37879166 55.38779831 28.46762085 55.40359497 C30.22190259 55.40399617 31.97555303 55.29902404 33.72558594 55.17700195 C35.90890282 53.4156384 35.90890282 53.4156384 35.92089844 51.23168945 C35.89769531 50.51239258 35.87449219 49.7930957 35.85058594 49.05200195 C35.80933594 47.77325195 35.76808594 46.49450195 35.72558594 45.17700195 C34.62158447 45.1018335 33.51758301 45.02666504 32.38012695 44.94921875 C28.24739888 44.66468648 24.11591592 44.36461295 19.98461914 44.06005859 C18.20334189 43.93087769 16.42176183 43.80579925 14.63989258 43.68505859 C12.06466768 43.50981926 9.49092714 43.31938869 6.91699219 43.1262207 C5.73986412 43.05101448 5.73986412 43.05101448 4.53895569 42.97428894 C-1.72054923 42.48154155 -8.44597672 41.47766929 -13.43066406 37.4230957 C-13.87410156 36.82625977 -14.31753906 36.22942383 -14.77441406 35.61450195 C-15.23847656 35.01508789 -15.70253906 34.41567383 -16.18066406 33.7980957 C-18.94511676 29.70078188 -18.56984422 25.80347766 -18.64941406 20.98950195 C-18.68679688 20.1509668 -18.72417969 19.31243164 -18.76269531 18.44848633 C-18.85259211 12.05083103 -17.50104808 8.9922339 -13.27441406 4.17700195 C-9.01893617 1.06323764 -5.20752801 0.07014025 0 0 Z " fill="#070707" transform="translate(807.2744140625,394.822998046875)"/>
<path d="M0 0 C1.07894531 0.02255859 2.15789062 0.04511719 3.26953125 0.06835938 C5.9310935 0.1272435 8.58984228 0.20942999 11.25 0.3125 C9.96104283 3.12601786 8.58731495 5.2450707 6.45703125 7.484375 C5.91248291 8.06243896 5.36793457 8.64050293 4.80688477 9.23608398 C4.23123779 9.83880127 3.65559082 10.44151855 3.0625 11.0625 C1.87939361 12.31824332 0.69709514 13.57474834 -0.484375 14.83203125 C-1.05091797 15.43354004 -1.61746094 16.03504883 -2.20117188 16.65478516 C-4.61540113 19.23874112 -6.94921753 21.88589495 -9.24609375 24.57421875 C-10.31487351 25.80956159 -11.41491668 27.01815556 -12.53515625 28.20703125 C-13.10105469 28.81933594 -13.66695312 29.43164062 -14.25 30.0625 C-14.7553125 30.59359375 -15.260625 31.1246875 -15.78125 31.671875 C-16.94345387 33.28364217 -16.94345387 33.28364217 -16.6015625 35.3125 C-15.60608619 37.6504994 -14.48802345 38.84150076 -12.625 40.5625 C-10.18721794 42.89727719 -7.88009994 45.24609803 -5.6875 47.8125 C-3.27126421 50.62866448 -0.78050147 53.35621768 1.76953125 56.05078125 C2.40173584 56.71980469 3.03394043 57.38882813 3.68530273 58.078125 C4.96598412 59.42957028 6.2505854 60.777313 7.53930664 62.12109375 C8.13219482 62.74757813 8.72508301 63.3740625 9.3359375 64.01953125 C10.1410376 64.86221558 10.1410376 64.86221558 10.96240234 65.72192383 C12.25 67.3125 12.25 67.3125 13.25 70.3125 C-5.29430092 73.00590859 -5.29430092 73.00590859 -12.296875 68.77294922 C-16.83324179 64.8933141 -20.50179117 60.34374471 -24.04296875 55.55859375 C-26.34656761 52.52754262 -28.88991511 49.74270224 -31.46484375 46.94140625 C-32.75 45.3125 -32.75 45.3125 -32.75 43.3125 C-36.38 43.3125 -40.01 43.3125 -43.75 43.3125 C-43.75 52.5525 -43.75 61.7925 -43.75 71.3125 C-49.69 71.3125 -55.63 71.3125 -61.75 71.3125 C-61.75 48.2125 -61.75 25.1125 -61.75 1.3125 C-55.81 1.3125 -49.87 1.3125 -43.75 1.3125 C-43.75 10.2225 -43.75 19.1325 -43.75 28.3125 C-34.84669016 27.76976541 -34.84669016 27.76976541 -29.75 22.4375 C-28.92242188 21.4475 -28.09484375 20.4575 -27.2421875 19.4375 C-26.41976562 18.40625 -25.59734375 17.375 -24.75 16.3125 C-23.92757812 15.3225 -23.10515625 14.3325 -22.2578125 13.3125 C-17.88035381 8.16175802 -17.88035381 8.16175802 -14.2265625 2.51171875 C-10.09496748 -1.15718977 -5.30525733 -0.20899499 0 0 Z " fill="#060707" transform="translate(1025.75,394.6875)"/>
<path d="M0 0 C0.86936691 -0.0066568 1.73873383 -0.0133136 2.63444519 -0.02017212 C4.47445562 -0.03029742 6.31450276 -0.03498918 8.15454102 -0.03466797 C10.95976945 -0.03903031 13.76341048 -0.07531991 16.56835938 -0.11328125 C18.35806755 -0.11915174 20.14778318 -0.12311958 21.9375 -0.125 C22.7720723 -0.13937103 23.60664459 -0.15374207 24.46650696 -0.16854858 C30.85219691 -0.1188545 34.33329236 1.63234008 39.01586914 6.09838867 C40.69968867 9.36861669 40.61616122 12.54140149 40.6015625 16.13671875 C40.60680435 16.89131882 40.6120462 17.64591888 40.6174469 18.42338562 C40.62385934 20.0178403 40.62254011 21.61234233 40.61401367 23.20678711 C40.60553234 25.63026658 40.63422486 28.05136437 40.66601562 30.47460938 C40.6676287 32.02864513 40.66704807 33.58268502 40.6640625 35.13671875 C40.68091347 36.21207634 40.68091347 36.21207634 40.69810486 37.30915833 C40.62234262 42.85980973 39.33724725 45.92540065 36.16796875 50.3359375 C31.96322229 53.98387827 27.66987016 53.80336445 22.359375 53.8046875 C21.51503403 53.81230103 20.67069305 53.81991455 19.80076599 53.82775879 C18.01979521 53.83853616 16.23876135 53.84142251 14.45776367 53.83691406 C11.74224847 53.83594172 9.02956073 53.87758688 6.31445312 53.921875 C4.57943294 53.92708259 2.84440299 53.92977018 1.109375 53.9296875 C0.30295059 53.94608276 -0.50347382 53.96247803 -1.33433533 53.97937012 C-5.37878594 53.93012327 -8.0355688 53.59690436 -11.26586914 51.04882812 C-15.82194973 46.23223907 -16.14856626 42.80197992 -16.16796875 36.28125 C-16.17462555 35.50208221 -16.18128235 34.72291443 -16.18814087 33.9201355 C-16.19824866 32.27441766 -16.20295847 30.628659 -16.20263672 28.98291016 C-16.20700467 26.47619427 -16.24332642 23.97124772 -16.28125 21.46484375 C-16.28711981 19.86198515 -16.2910881 18.25911824 -16.29296875 16.65625 C-16.30733978 15.91230988 -16.32171082 15.16836975 -16.33651733 14.40188599 C-16.2915236 9.22937351 -15.11865202 6.30203608 -11.83203125 2.3359375 C-7.91471229 -0.27560847 -4.54837885 0.01204205 0 0 Z " fill="#504A6B" transform="translate(877.83203125,310.6640625)"/>
<path d="M0 0 C1.39456452 0.00667256 2.78911118 0.01863093 4.18359375 0.03515625 C5.2499707 0.04192383 5.2499707 0.04192383 6.33789062 0.04882812 C8.09899388 0.06064761 9.86005411 0.07858362 11.62109375 0.09765625 C12.7666689 2.38880655 13.91171781 4.68020422 15.0546875 6.97265625 C16.16368249 9.18511509 17.28178652 11.39301889 18.40625 13.59765625 C23.6945935 23.99426664 23.6945935 23.99426664 25.12109375 28.09765625 C26.62135477 32.40633272 28.72015483 36.39221121 30.78198242 40.45507812 C33.06928264 44.97076782 35.28206766 49.51568142 37.43359375 54.09765625 C37.86816895 55.01333374 37.86816895 55.01333374 38.31152344 55.94750977 C40.01621512 59.59733698 41.4198061 63.25353578 42.62109375 67.09765625 C38.56590601 67.44196464 34.66595887 67.61539899 30.62109375 67.09765625 C26.91982862 63.39639112 26.31345518 60.17474053 24.62109375 55.09765625 C10.76109375 54.76765625 -3.09890625 54.43765625 -17.37890625 54.09765625 C-18.03890625 56.07765625 -18.69890625 58.05765625 -19.37890625 60.09765625 C-20.32778443 62.45679373 -21.35451231 64.7694882 -22.37890625 67.09765625 C-26.33890625 67.09765625 -30.29890625 67.09765625 -34.37890625 67.09765625 C-33.67838073 63.59502863 -33.22881022 61.41314289 -31.81640625 58.34765625 C-31.460625 57.57292969 -31.10484375 56.79820312 -30.73828125 56 C-30.2896875 55.04222656 -29.84109375 54.08445312 -29.37890625 53.09765625 C-28.77994339 51.80729377 -28.18098545 50.516929 -27.58203125 49.2265625 C-23.94598795 41.42412596 -20.19859649 33.69131402 -16.31640625 26.0078125 C-13.32967164 20.0359456 -10.50719911 13.98274083 -7.66650391 7.94042969 C-7.2544873 7.06805664 -6.8424707 6.19568359 -6.41796875 5.296875 C-6.04881348 4.51143311 -5.6796582 3.72599121 -5.29931641 2.91674805 C-3.74109821 -0.16290283 -3.7949588 0.10968089 0 0 Z " fill="#4D4768" transform="translate(598.37890625,296.90234375)"/>
<path d="M0 0 C0.86936691 -0.0066568 1.73873383 -0.0133136 2.63444519 -0.02017212 C4.47445562 -0.03029742 6.31450276 -0.03498918 8.15454102 -0.03466797 C10.95976945 -0.03903031 13.76341048 -0.07531991 16.56835938 -0.11328125 C18.35806755 -0.11915174 20.14778318 -0.12311958 21.9375 -0.125 C22.7720723 -0.13937103 23.60664459 -0.15374207 24.46650696 -0.16854858 C29.84463899 -0.12669542 32.92870127 0.72901189 37.16796875 4.3359375 C40.16796875 8.3359375 40.16796875 8.3359375 40.16796875 31.3359375 C24.98796875 31.3359375 9.80796875 31.3359375 -5.83203125 31.3359375 C-5.50203125 34.9659375 -5.17203125 38.5959375 -4.83203125 42.3359375 C16.94796875 42.8309375 16.94796875 42.8309375 39.16796875 43.3359375 C39.16796875 46.6359375 39.16796875 49.9359375 39.16796875 53.3359375 C32.60272053 53.4846537 26.03846022 53.59333058 19.47192383 53.66552734 C17.23997918 53.69563407 15.0081522 53.73652948 12.77661133 53.78857422 C9.56171596 53.86165631 6.34838919 53.89545578 3.1328125 53.921875 C2.14087387 53.95284271 1.14893524 53.98381042 0.12693787 54.01571655 C-5.89883772 54.01862028 -9.19653093 53.13071291 -13.58860779 48.92080688 C-16.49564298 45.21549553 -16.02645195 40.85079829 -16.0703125 36.37890625 C-16.07838425 35.59832352 -16.08645599 34.81774078 -16.09477234 34.01350403 C-16.10859445 32.36180836 -16.11932498 30.71008435 -16.12719727 29.05834961 C-16.13871711 27.37369386 -16.1591692 25.68907461 -16.1887207 24.00463867 C-16.23149256 21.56664297 -16.24757896 19.12973104 -16.2578125 16.69140625 C-16.27532059 15.94432907 -16.29282867 15.19725189 -16.31086731 14.42753601 C-16.28949693 9.2367396 -15.13432403 6.31353814 -11.83203125 2.3359375 C-7.91471229 -0.27560847 -4.54837885 0.01204205 0 0 Z " fill="#524C6D" transform="translate(1034.83203125,310.6640625)"/>
<path d="M0 0 C0.80125809 -0.01268417 1.60251617 -0.02536835 2.42805481 -0.03843689 C3.29057358 -0.03550125 4.15309235 -0.03256561 5.04174805 -0.02954102 C5.933311 -0.03478287 6.82487396 -0.04002472 7.74345398 -0.04542542 C9.63055378 -0.05184963 11.51769361 -0.05050345 13.40478516 -0.04199219 C16.28255309 -0.03350892 19.15831828 -0.0621937 22.03588867 -0.09399414 C23.87117454 -0.095607 25.7064639 -0.095027 27.54174805 -0.09204102 C28.82641716 -0.10889198 28.82641716 -0.10889198 30.13703918 -0.12608337 C35.56060557 -0.06332613 38.71079513 0.7621342 42.9909668 4.40405273 C45.25695128 7.80302946 45.22839334 8.96724447 45.1862793 12.94702148 C45.18128418 13.91406006 45.17628906 14.88109863 45.17114258 15.87744141 C45.15293457 17.10309814 45.13472656 18.32875488 45.1159668 19.59155273 C45.0747168 23.48967773 45.0334668 27.38780273 44.9909668 31.40405273 C29.8109668 31.40405273 14.6309668 31.40405273 -1.0090332 31.40405273 C-0.6790332 35.03405273 -0.3490332 38.66405273 -0.0090332 42.40405273 C14.8409668 42.73405273 29.6909668 43.06405273 44.9909668 43.40405273 C44.9909668 46.70405273 44.9909668 50.00405273 44.9909668 53.40405273 C38.12260791 53.57734226 31.25552622 53.70424096 24.38549805 53.78857422 C22.04966055 53.82373492 19.71397665 53.87147351 17.37866211 53.93212891 C14.01727398 54.01723639 10.65792474 54.056786 7.2956543 54.08764648 C6.25480682 54.12377548 5.21395935 54.15990448 4.14157104 54.1971283 C-2.7725791 54.20085639 -2.7725791 54.20085639 -6.01835632 52.10919189 C-9.60457317 48.43063733 -10.70291064 45.0126817 -10.76576233 39.94552612 C-10.74420578 39.16613678 -10.72264923 38.38674744 -10.70043945 37.58374023 C-10.69906479 36.76205353 -10.69769012 35.94036682 -10.6962738 35.09378052 C-10.6872597 33.36748144 -10.66376021 31.6412029 -10.62646484 29.9152832 C-10.57153517 27.27914734 -10.56493747 24.64617135 -10.56567383 22.00952148 C-10.55093016 20.32590053 -10.53344596 18.64230086 -10.51293945 16.95874023 C-10.50960098 16.17530243 -10.50626251 15.39186462 -10.50282288 14.58468628 C-10.35924255 9.04976095 -9.16364519 5.96693437 -5.65609741 1.79475403 C-3.62264275 0.07780334 -2.63262367 0.02021602 0 0 Z " fill="#4D4769" transform="translate(743.009033203125,310.595947265625)"/>
<path d="M0 0 C3.3 0 6.6 0 10 0 C13.23188914 5.98497988 15.53134886 12.08600447 17.76171875 18.5078125 C19.15259822 22.43035588 20.69320713 26.27153005 22.30078125 30.109375 C23 32 23 32 23 34 C23.66 34 24.32 34 25 34 C25.17015625 33.443125 25.3403125 32.88625 25.515625 32.3125 C26.73388453 28.47627849 27.99979182 24.81746922 29.875 21.25 C32.28815928 16.6464346 34.04133049 11.81884415 35.8515625 6.953125 C37 4 37 4 39 0 C43.29 0 47.58 0 52 0 C54.18453317 4.29373761 56.26345305 8.56760109 58.14575195 13.00415039 C59.7847572 16.83349246 61.49212363 20.63286695 63.1875 24.4375 C63.55552734 25.26443359 63.92355469 26.09136719 64.30273438 26.94335938 C65.20139594 28.96243016 66.1004931 30.98130571 67 33 C69.40208476 30.0724592 70.7632176 27.38370917 72 23.8125 C72.3403125 22.84183594 72.680625 21.87117188 73.03125 20.87109375 C73.87251889 18.37781701 74.6903787 15.87866586 75.5 13.375 C77.01091863 8.75876793 78.96982951 4.41037037 81 0 C84.3 0 87.6 0 91 0 C90.60634934 5.77354295 88.69437218 10.32739811 86.3984375 15.609375 C84.62684574 19.90474272 83.18249577 24.27126297 81.74414062 28.68652344 C80.28066904 33.17746419 78.69527183 37.59229324 77 42 C76.67 42.99 76.34 43.98 76 45 C75.34 45 74.68 45 74 45 C73.7834375 46.423125 73.7834375 46.423125 73.5625 47.875 C73 51 73 51 72 53 C69.03 53 66.06 53 63 53 C62.3291288 51.3767313 61.66342971 49.75132422 61 48.125 C60.62875 47.22007812 60.2575 46.31515625 59.875 45.3828125 C59 43 59 43 59 41 C58.34 41 57.68 41 57 41 C56.60167969 39.97519531 56.20335937 38.95039063 55.79296875 37.89453125 C55.25804583 36.53376242 54.72287651 35.17309043 54.1875 33.8125 C53.92646484 33.13896484 53.66542969 32.46542969 53.39648438 31.77148438 C51.88251853 27.93984241 50.17692681 24.51276827 48 21 C47.28856912 19.01548229 46.61008664 17.01797888 46 15 C42.65229032 21.60328057 39.60854487 28.3454018 36.9375 35.25 C35.76997684 38.2373467 34.5134538 40.99304452 32.875 43.75 C31.11305177 46.80404359 29.98706962 49.62751213 29 53 C26.03 53 23.06 53 20 53 C17.37790557 46.80739402 14.82489033 40.59978883 12.4375 34.3125 C11.07739272 30.7348265 9.67977203 27.21844703 8.0625 23.75 C6.02587877 19.28284315 4.38999338 14.68617679 2.75 10.0625 C2.47937744 9.30356445 2.20875488 8.54462891 1.92993164 7.76269531 C0 2.25073596 0 2.25073596 0 0 Z " fill="#4E4768" transform="translate(637,311)"/>
<path d="M0 0 C17.93755084 -0.20054405 17.93755084 -0.20054405 25.60742188 -0.24414062 C30.83286044 -0.27398389 36.05785926 -0.30921634 41.28295898 -0.37719727 C45.4975458 -0.43168529 49.71166082 -0.46145564 53.9265728 -0.47438622 C55.53131979 -0.48359615 57.13604213 -0.50158141 58.74058723 -0.52865028 C72.89014409 -0.75777424 72.89014409 -0.75777424 77.47827148 2.40551758 C80.64762042 5.6663048 81.12577475 6.97263795 81.11352539 11.35791016 C81.11341209 12.70908432 81.11341209 12.70908432 81.11329651 14.08755493 C81.10813522 15.06155243 81.10297394 16.03554993 81.09765625 17.0390625 C81.0962413 18.03505463 81.09482635 19.03104675 81.09336853 20.05722046 C81.08775936 23.24651053 81.0752053 26.43573106 81.0625 29.625 C81.05748618 31.78385315 81.05292307 33.94270741 81.04882812 36.1015625 C81.03778695 41.40106857 81.02051614 46.70052248 81 52 C78.03 52 75.06 52 72 52 C71.67 38.47 71.34 24.94 71 11 C58.13 10.505 58.13 10.505 45 10 C45 23.86 45 37.72 45 52 C42.03 52 39.06 52 36 52 C35.505 31.21 35.505 31.21 35 10 C26.75 9.67 18.5 9.34 10 9 C10 23.52 10 38.04 10 53 C6.7 53 3.4 53 0 53 C0 35.51 0 18.02 0 0 Z " fill="#4C4667" transform="translate(928,311)"/>
<path d="M0 0 C0.86795197 -0.0066568 1.73590393 -0.0133136 2.63015747 -0.02017212 C4.46419154 -0.03028488 6.2982623 -0.03498956 8.13232422 -0.03466797 C10.92868139 -0.03903652 13.72345367 -0.07535665 16.51953125 -0.11328125 C18.30468212 -0.11915076 20.08984047 -0.12311925 21.875 -0.125 C23.12215286 -0.14655655 23.12215286 -0.14655655 24.39450073 -0.16854858 C29.75032726 -0.12669816 32.82785075 0.76127837 37.0703125 4.3359375 C38.5486351 7.29258269 38.13064033 10.07823487 38.0703125 13.3359375 C35.1003125 13.3359375 32.1303125 13.3359375 29.0703125 13.3359375 C29.0703125 12.3459375 29.0703125 11.3559375 29.0703125 10.3359375 C11.7453125 10.8309375 11.7453125 10.8309375 -5.9296875 11.3359375 C-5.9296875 14.3059375 -5.9296875 17.2759375 -5.9296875 20.3359375 C-4.84550537 20.33480957 -3.76132324 20.33368164 -2.64428711 20.33251953 C1.40229816 20.33620792 5.44770206 20.37915556 9.49389648 20.43359375 C11.24056356 20.45169225 12.9873731 20.45933344 14.73413086 20.45605469 C17.25485121 20.45317961 19.77265457 20.48867358 22.29296875 20.53125 C23.06616959 20.52215607 23.83937042 20.51306213 24.63600159 20.50369263 C30.0514123 20.64684422 32.81696731 22.15192066 36.74998474 25.85641479 C39.68851905 29.14925493 39.30290351 32.29608661 39.3828125 36.5859375 C39.43888672 38.54273438 39.43888672 38.54273438 39.49609375 40.5390625 C38.92673621 45.61626915 36.98031228 48.35545911 33.48901367 51.97558594 C29.80709761 54.04640821 26.29933504 53.80368493 22.140625 53.8046875 C21.27267303 53.81230103 20.40472107 53.81991455 19.51046753 53.82775879 C17.67644116 53.83855118 15.84235338 53.84141638 14.00830078 53.83691406 C11.21151372 53.83594312 8.4174838 53.87754259 5.62109375 53.921875 C3.8359432 53.92708343 2.05078315 53.92977017 0.265625 53.9296875 C-0.56581024 53.94608276 -1.39724548 53.96247803 -2.25387573 53.97937012 C-6.43319881 53.92998341 -9.12906021 53.60795157 -12.45410156 50.95239258 C-16.1604581 47.03513193 -15.77295262 44.58655587 -15.9296875 39.3359375 C-12.9596875 39.3359375 -9.9896875 39.3359375 -6.9296875 39.3359375 C-6.5996875 40.3259375 -6.2696875 41.3159375 -5.9296875 42.3359375 C5.2903125 42.3359375 16.5103125 42.3359375 28.0703125 42.3359375 C28.0703125 39.0359375 28.0703125 35.7359375 28.0703125 32.3359375 C26.43618408 32.32977417 26.43618408 32.32977417 24.76904297 32.32348633 C20.70948612 32.30163943 16.65089088 32.2472932 12.59179688 32.18334961 C10.83831022 32.16021782 9.08468558 32.14578521 7.33105469 32.14038086 C4.80316666 32.13105551 2.27743433 32.08999115 -0.25 32.04296875 C-1.41754318 32.04886772 -1.41754318 32.04886772 -2.6086731 32.05488586 C-8.32884021 31.90311013 -10.96712803 30.49729417 -14.9296875 26.3359375 C-14.9296875 25.6759375 -14.9296875 25.0159375 -14.9296875 24.3359375 C-15.5896875 24.3359375 -16.2496875 24.3359375 -16.9296875 24.3359375 C-17.03840717 21.79310516 -17.11731151 19.25498662 -17.1796875 16.7109375 C-17.21320312 15.99808594 -17.24671875 15.28523438 -17.28125 14.55078125 C-17.37661683 9.35328905 -16.43195232 6.41374933 -12.9296875 2.3359375 C-9.05961854 -0.45758557 -4.57465933 0.01218645 0 0 Z " fill="#50496A" transform="translate(813.9296875,310.6640625)"/>
<path d="M0 0 C5.506875 -0.0825 11.01375 -0.165 16.6875 -0.25 C19.28177856 -0.30462402 19.28177856 -0.30462402 21.9284668 -0.36035156 C23.31037151 -0.37204187 24.69229007 -0.38223289 26.07421875 -0.390625 C26.78276001 -0.41108887 27.49130127 -0.43155273 28.22131348 -0.45263672 C31.87375627 -0.45519669 33.83580652 -0.10633691 36.93286133 1.89941406 C41.62562918 6.66811309 40.1842473 13.0517571 40.1875 19.375 C40.19974609 20.62023437 40.21199219 21.86546875 40.22460938 23.1484375 C40.22654297 24.3446875 40.22847656 25.5409375 40.23046875 26.7734375 C40.23457764 27.87091309 40.23868652 28.96838867 40.24291992 30.09912109 C39.99808089 33.02291744 39.69257573 34.62216687 38 37 C34.46647545 39.67387604 30.4088375 39.2560592 26.171875 39.1953125 C25.50752441 39.19329834 24.84317383 39.19128418 24.15869141 39.18920898 C21.68905686 39.17878502 19.21952113 39.15086245 16.75 39.125 C11.2225 39.08375 5.695 39.0425 0 39 C0 26.13 0 13.26 0 0 Z " fill="#F9F9F8" transform="translate(893,411)"/>
<path d="M0 0 C5.94 0 11.88 0 18 0 C18 24.42 18 48.84 18 74 C12.06 74 6.12 74 0 74 C0 49.58 0 25.16 0 0 Z " fill="#0E0E0F" transform="translate(726,392)"/>
<path d="M0 0 C5.61 0 11.22 0 17 0 C17 24.09 17 48.18 17 73 C11.39 73 5.78 73 0 73 C0 48.91 0 24.82 0 0 Z " fill="#040405" transform="translate(758,392)"/>
<path d="M0 0 C0.73541016 0.00202423 1.47082031 0.00404846 2.22851562 0.00613403 C2.97939453 0.00517731 3.73027344 0.00422058 4.50390625 0.00323486 C6.09440189 0.00255315 7.6849003 0.00440682 9.27539062 0.00857544 C11.71816217 0.01392386 14.16074984 0.00863019 16.60351562 0.00222778 C18.1451827 0.00288857 19.68684966 0.00416973 21.22851562 0.00613403 C21.96392578 0.0041098 22.69933594 0.00208557 23.45703125 0 C28.61356402 0.02399493 28.61356402 0.02399493 29.72851562 1.13894653 C29.82872492 3.41842445 29.85932866 5.70101788 29.86132812 7.98269653 C29.86228485 8.6669873 29.86324158 9.35127808 29.86422729 10.05630493 C29.86490892 11.5055653 29.86305585 12.95482872 29.85888672 14.40408325 C29.85353815 16.62957581 29.85883222 18.85486654 29.86523438 21.08035278 C29.86457359 22.48530115 29.86329242 23.89024939 29.86132812 25.29519653 C29.8602002 26.58232544 29.85907227 27.86945435 29.85791016 29.19558716 C29.72851562 32.13894653 29.72851562 32.13894653 28.72851562 33.13894653 C26.21927409 33.23981865 23.73815179 33.27866686 21.22851562 33.27175903 C20.47763672 33.27271576 19.72675781 33.27367249 18.953125 33.2746582 C17.36262936 33.27533991 15.77213095 33.27348625 14.18164062 33.26931763 C11.73886908 33.2639692 9.29628141 33.26926287 6.85351562 33.27566528 C5.31184855 33.2750045 3.77018159 33.27372333 2.22851562 33.27175903 C1.49310547 33.27378326 0.75769531 33.2758075 0 33.27789307 C-5.15653277 33.25389814 -5.15653277 33.25389814 -6.27148438 32.13894653 C-6.37169367 29.85946862 -6.40229741 27.57687519 -6.40429688 25.29519653 C-6.4052536 24.61090576 -6.40621033 23.92661499 -6.40719604 23.22158813 C-6.40787767 21.77232776 -6.4060246 20.32306435 -6.40185547 18.87380981 C-6.3965069 16.64831725 -6.40180097 14.42302652 -6.40820312 12.19754028 C-6.40754234 10.79259192 -6.40626117 9.38764368 -6.40429688 7.98269653 C-6.40316895 6.69556763 -6.40204102 5.40843872 -6.40087891 4.08230591 C-6.18447427 -0.840287 -4.45483873 0.02072973 0 0 Z " fill="#F7F7F8" transform="translate(878.271484375,320.8610534667969)"/>
<path d="M0 0 C5.94 0 11.88 0 18 0 C18 18.15 18 36.3 18 55 C12.06 55 6.12 55 0 55 C0 36.85 0 18.7 0 0 Z " fill="#131414" transform="translate(695,411)"/>
<path d="M0 0 C0.99 0 1.98 0 3 0 C4.60646395 3.35307103 6.20975177 6.70765148 7.8125 10.0625 C8.26431641 11.00544922 8.71613281 11.94839844 9.18164062 12.91992188 C16 27.20363823 16 27.20363823 16 31 C6.1 31 -3.8 31 -14 31 C-13.21337652 27.0668826 -12.49897234 24.58952999 -10.8203125 21.09375 C-10.38589844 20.18496094 -9.95148437 19.27617187 -9.50390625 18.33984375 C-9.04886719 17.40269531 -8.59382812 16.46554687 -8.125 15.5 C-7.67769531 14.56285156 -7.23039063 13.62570312 -6.76953125 12.66015625 C-2.18017997 3.11593014 -2.18017997 3.11593014 0 0 Z " fill="#F3F2F4" transform="translate(601,310)"/>
<path d="M0 0 C11.55 0 23.1 0 35 0 C35 3.96 35 7.92 35 12 C23.45 12 11.9 12 0 12 C0 8.04 0 4.08 0 0 Z " fill="#EFEFF3" transform="translate(743,321)"/>
<path d="M0 0 C11.22 0 22.44 0 34 0 C34 3.63 34 7.26 34 11 C22.78 11 11.56 11 0 11 C0 7.37 0 3.74 0 0 Z " fill="#F8F8FA" transform="translate(1030,321)"/>
<path d="M0 0 C7.62353043 -0.04636314 15.24704622 -0.08188943 22.87068558 -0.10362434 C26.41074864 -0.11405661 29.95071516 -0.12820554 33.49072266 -0.15087891 C37.56153281 -0.17678851 41.63224172 -0.18647738 45.703125 -0.1953125 C46.97303284 -0.20563507 48.24294067 -0.21595764 49.55133057 -0.22659302 C50.73225281 -0.22674408 51.91317505 -0.22689514 53.12988281 -0.22705078 C54.16912903 -0.231492 55.20837524 -0.23593323 56.27911377 -0.24050903 C59 0 59 0 63 2 C42.87 2 22.74 2 2 2 C2 24.44 2 46.88 2 70 C20.81 70 39.62 70 59 70 C59 70.33 59 70.66 59 71 C51.45501767 71.02312851 43.91003899 71.04091769 36.36502934 71.05181217 C32.86191115 71.05703989 29.35881715 71.0641355 25.85571289 71.07543945 C21.83219159 71.08834206 17.80869586 71.09322912 13.78515625 71.09765625 C12.52163834 71.10281754 11.25812042 71.10797882 9.95631409 71.11329651 C8.795186 71.11337204 7.63405792 71.11344757 6.43774414 71.11352539 C4.8955294 71.11685631 4.8955294 71.11685631 3.32215881 71.12025452 C1 71 1 71 0 70 C-0.09429342 67.82194281 -0.11742538 65.6407872 -0.11352539 63.46069336 C-0.11367142 62.77779739 -0.11381744 62.09490143 -0.1139679 61.39131165 C-0.11326876 59.12412386 -0.1054764 56.85701726 -0.09765625 54.58984375 C-0.09579207 53.02185613 -0.09436817 51.45386793 -0.09336853 49.88587952 C-0.08954334 45.75123497 -0.07971306 41.61662534 -0.06866455 37.48199463 C-0.05845044 33.26599602 -0.05387091 29.04999178 -0.04882812 24.83398438 C-0.03809079 16.55597353 -0.02101436 8.2779911 0 0 Z " fill="#666666" transform="translate(874,395)"/>
<path d="M0 0 C5.61 0 11.22 0 17 0 C17 3.96 17 7.92 17 12 C11.39 12 5.78 12 0 12 C0 8.04 0 4.08 0 0 Z " fill="#070707" transform="translate(696,393)"/>
<path d="M0 0 C0.598125 0.20625 1.19625 0.4125 1.8125 0.625 C1.1525 1.285 0.4925 1.945 -0.1875 2.625 C-0.35427282 6.20843976 -0.35427282 6.20843976 -0.1875 9.625 C0.4725 9.955 1.1325 10.285 1.8125 10.625 C0.8125 13.625 0.8125 13.625 -1.1875 14.625 C-0.93188677 16.9681213 -0.59479228 19.30343403 -0.1875 21.625 C0.4725 21.955 1.1325 22.285 1.8125 22.625 C1.8125 23.285 1.8125 23.945 1.8125 24.625 C0.8225 25.285 -0.1675 25.945 -1.1875 26.625 C-1.66196226 30.23091321 -1.02582664 32.52282379 0.8125 35.625 C-2.41810419 35.06799928 -4.2533223 34.33284878 -6.1875 31.625 C-6.5 29.0625 -6.5 29.0625 -6.1875 26.625 C-5.5275 25.965 -4.8675 25.305 -4.1875 24.625 C-4.47302357 22.72832891 -4.47302357 22.72832891 -5.1875 20.625 C-5.875 18.0625 -5.875 18.0625 -6.1875 15.625 C-5.5275 14.635 -4.8675 13.645 -4.1875 12.625 C-4.47547019 11.28113912 -4.81965869 9.9492287 -5.1875 8.625 C-5.4375 5 -5.4375 5 -5.1875 1.625 C-2.1875 -0.375 -2.1875 -0.375 0 0 Z " fill="#80A880" transform="translate(718.1875,179.375)"/>
<path d="M0 0 C4.75 0.75 4.75 0.75 7 3 C7.34361606 6.95158471 7.08901197 9.60535554 5 13 C5.66 13.66 6.32 14.32 7 15 C6.7397104 17.34260643 6.40047444 19.67724823 6 22 C6 23.32 6 24.64 6 26 C6.33 26.33 6.66 26.66 7 27 C7.3125 29.3125 7.3125 29.3125 7 32 C5.1875 34.3125 5.1875 34.3125 3 36 C2.01 36 1.02 36 0 36 C0.33 35.443125 0.66 34.88625 1 34.3125 C2.16594721 31.61624708 2.29134297 29.91342967 2 27 C1.08431094 24.74867483 1.08431094 24.74867483 0 23 C0.66 22.34 1.32 21.68 2 21 C2.34361606 17.04841529 2.08901197 14.39464446 0 11 C0.66 10.34 1.32 9.68 2 9 C2.16681109 5.91652174 2.16681109 5.91652174 2 3 C1.34 2.67 0.68 2.34 0 2 C0 1.34 0 0.68 0 0 Z " fill="#7FA980" transform="translate(927,179)"/>
<path d="M0 0 C2.5625 0.3125 2.5625 0.3125 4.4375 1.5 C5.5625 3.3125 5.5625 3.3125 5.3125 5.9375 C4.5625 8.3125 4.5625 8.3125 3.5625 9.3125 C0.625 9.5 0.625 9.5 -2.4375 9.3125 C-4.4375 7.3125 -4.4375 7.3125 -4.6875 4.8125 C-4.34234788 1.3609788 -3.44095645 0.44114826 0 0 Z " fill="#7BA47D" transform="translate(739.4375,185.6875)"/>
<path d="M0 0 C2.5 0.25 2.5 0.25 4.5 2.25 C4.6875 5.3125 4.6875 5.3125 4.5 8.25 C3.5 9.25 3.5 9.25 0.5625 9.4375 C-2.5 9.25 -2.5 9.25 -4.5 7.25 C-4.75 4.75 -4.75 4.75 -4.5 2.25 C-2.5 0.25 -2.5 0.25 0 0 Z " fill="#75A075" transform="translate(906.5,185.75)"/>
<path d="M0 0 C1.32751785 0.00212242 1.32751785 0.00212242 2.68185425 0.00428772 C5.51449941 0.00989485 8.34706614 0.02244854 11.1796875 0.03515625 C13.09765511 0.04017033 15.01562396 0.0447334 16.93359375 0.04882812 C21.64065532 0.05986659 26.3476581 0.077136 31.0546875 0.09765625 C31.0546875 0.42765625 31.0546875 0.75765625 31.0546875 1.09765625 C29.9402124 1.09652832 28.8257373 1.09540039 27.67749023 1.09423828 C23.5191024 1.09792578 19.36186482 1.14086555 15.20385742 1.1953125 C13.40868568 1.21341453 11.61337525 1.22105155 9.81811523 1.21777344 C7.2279248 1.21489944 4.64057612 1.25038358 2.05078125 1.29296875 C1.25570663 1.28387482 0.46063202 1.27478088 -0.35853577 1.26541138 C-5.94093182 1.40909107 -8.7212695 2.93764905 -12.73033142 6.81344604 C-13.13127518 7.23723541 -13.53221893 7.66102478 -13.9453125 8.09765625 C-14.2753125 7.43765625 -14.6053125 6.77765625 -14.9453125 6.09765625 C-10.2059324 -0.06353788 -7.5445197 -0.04503601 0 0 Z " fill="#625E7C" transform="translate(877.9453125,310.90234375)"/>
<path d="M0 0 C1.42179565 0.03927612 1.42179565 0.03927612 2.87231445 0.0793457 C4.41435547 0.10351562 4.41435547 0.10351562 5.98754883 0.12817383 C7.0594043 0.17006836 8.13125977 0.21196289 9.2355957 0.25512695 C10.31905273 0.27768555 11.40250977 0.30024414 12.51879883 0.32348633 C15.19661475 0.38246906 17.87166597 0.46472388 20.5480957 0.56762695 C20.2180957 1.55762695 19.8880957 2.54762695 19.5480957 3.56762695 C18.93289063 3.55715332 18.31768555 3.54667969 17.68383789 3.53588867 C14.88863227 3.49424 12.09349204 3.46827279 9.2980957 3.44262695 C8.33000977 3.42586914 7.36192383 3.40911133 6.36450195 3.3918457 C5.42993164 3.38540039 4.49536133 3.37895508 3.5324707 3.37231445 C2.24421387 3.356604 2.24421387 3.356604 0.92993164 3.34057617 C-1.63094026 3.58469373 -3.24701458 4.27772184 -5.4519043 5.56762695 C-3.16681033 0.73313094 -3.16681033 0.73313094 0 0 Z " fill="#4D4E4F" transform="translate(1016.451904296875,394.432373046875)"/>
<path d="M0 0 C13.86 0 27.72 0 42 0 C42 0.33 42 0.66 42 1 C40.25928223 1.029729 40.25928223 1.029729 38.48339844 1.06005859 C34.17442266 1.13617912 29.86578172 1.22488666 25.55712891 1.31738281 C23.69293838 1.3556459 21.8286747 1.39050346 19.96435547 1.421875 C17.28326284 1.46758356 14.60267267 1.52556822 11.921875 1.5859375 C11.08944275 1.59748871 10.2570105 1.60903992 9.39935303 1.62094116 C3.92120392 1.72596801 3.92120392 1.72596801 -1 4 C-0.67 2.68 -0.34 1.36 0 0 Z " fill="#D4D5DE" transform="translate(581,351)"/>
<path d="M0 0 C0.99 0.33 1.98 0.66 3 1 C1.44191344 10.59453303 1.44191344 10.59453303 -3 14 C-2.7215625 12.824375 -2.7215625 12.824375 -2.4375 11.625 C-1.74037734 9.02910225 -1.74037734 9.02910225 -3 7 C-2.06421005 4.64018187 -1.06652192 2.30368736 0 0 Z " fill="#463F62" transform="translate(587,328)"/>
<path d="M0 0 C0.66 0 1.32 0 2 0 C1.53730015 4.29227942 -0.90159458 6.02922065 -4.0625 8.75 C-4.98160156 9.54921875 -5.90070312 10.3484375 -6.84765625 11.171875 C-7.55792969 11.77515625 -8.26820313 12.3784375 -9 13 C-9.66 12.67 -10.32 12.34 -11 12 C-10.45730469 11.46890625 -9.91460938 10.9378125 -9.35546875 10.390625 C-8.64003906 9.68421875 -7.92460938 8.9778125 -7.1875 8.25 C-6.47980469 7.55390625 -5.77210938 6.8578125 -5.04296875 6.140625 C-2.96718507 4.06278237 -2.96718507 4.06278237 -1.36328125 1.734375 C-0.91339844 1.16203125 -0.46351563 0.5896875 0 0 Z " fill="#79A57C" transform="translate(929,37)"/>
<path d="M0 0 C-0.66 1.98 -1.32 3.96 -2 6 C-2.66 6 -3.32 6 -4 6 C-4.66 4.02 -5.32 2.04 -6 0 C-2.25 -1.125 -2.25 -1.125 0 0 Z " fill="#E2E0E6" transform="translate(664,339)"/>
<path d="M0 0 C0.33 0 0.66 0 1 0 C0.74438677 2.3431213 0.40729228 4.67843403 0 7 C-0.99 7.495 -0.99 7.495 -2 8 C-2.66 7.34 -3.32 6.68 -4 6 C-3.625 3.375 -3.625 3.375 -3 1 C-2.34 1.33 -1.68 1.66 -1 2 C-0.67 1.34 -0.34 0.68 0 0 Z " fill="#88AE8A" transform="translate(933,194)"/>
<path d="M0 0 C1.125 1.75 1.125 1.75 2 4 C1.3125 6.1875 1.3125 6.1875 0 8 C-0.99 8.33 -1.98 8.66 -3 9 C-2.5020163 5.26512223 -2.12508244 3.18762365 0 0 Z " fill="#91B28E" transform="translate(715,190)"/>
<path d="M0 0 C0.598125 0.20625 1.19625 0.4125 1.8125 0.625 C1.1525 1.285 0.4925 1.945 -0.1875 2.625 C-0.83517793 5.19561311 -0.83517793 5.19561311 -1.1875 7.625 C-1.5175 7.625 -1.8475 7.625 -2.1875 7.625 C-2.1875 5.975 -2.1875 4.325 -2.1875 2.625 C-2.8475 2.625 -3.5075 2.625 -4.1875 2.625 C-4.5175 3.615 -4.8475 4.605 -5.1875 5.625 C-5.1875 4.305 -5.1875 2.985 -5.1875 1.625 C-2.1875 -0.375 -2.1875 -0.375 0 0 Z " fill="#90B28A" transform="translate(718.1875,179.375)"/>
<path d="M0 0 C0.33 0.99 0.66 1.98 1 3 C-0.98 4.32 -2.96 5.64 -5 7 C-5.33 6.01 -5.66 5.02 -6 4 C-2.25 0 -2.25 0 0 0 Z " fill="#443C5E" transform="translate(583,331)"/>
<path d="M0 0 C0.99 0.99 1.98 1.98 3 3 C2.67 3.66 2.34 4.32 2 5 C1.34 4.67 0.68 4.34 0 4 C-0.33 5.32 -0.66 6.64 -1 8 C-1.66 8 -2.32 8 -3 8 C-1.125 1.125 -1.125 1.125 0 0 Z " fill="#D0D1D9" transform="translate(682,325)"/>
<path d="M0 0 C0.185625 0.9590625 0.185625 0.9590625 0.375 1.9375 C0.684375 2.9584375 0.684375 2.9584375 1 4 C1.66 4.33 2.32 4.66 3 5 C1.6875 6.5 1.6875 6.5 0 8 C-0.99 8 -1.98 8 -3 8 C-2.5359375 7.13375 -2.5359375 7.13375 -2.0625 6.25 C-1.07416636 4.15705816 -0.4831387 2.25464725 0 0 Z " fill="#86B089" transform="translate(930,207)"/>
<path d="M0 0 C0.66 0.33 1.32 0.66 2 1 C-0.31 3.31 -2.62 5.62 -5 8 C-5 5 -5 5 -2.5 2.3125 C-1.675 1.549375 -0.85 0.78625 0 0 Z " fill="#2E2F30" transform="translate(796,398)"/>
<path d="M0 0 C0.66 0.33 1.32 0.66 2 1 C1.0479279 2.00596297 0.08812654 3.00461563 -0.875 4 C-1.40867187 4.556875 -1.94234375 5.11375 -2.4921875 5.6875 C-4 7 -4 7 -6 7 C-4.77065985 3.31197956 -3.06140622 2.27643027 0 0 Z " fill="#7BA57D" transform="translate(749,212)"/>
</svg>
